<svg xmlns="http://www.w3.org/2000/svg" xmlns:xlink="http://www.w3.org/1999/xlink" preserveAspectRatio="xMidYMid" width="24" height="16" viewBox="0 0 24 16">
  <defs>
    <style>

      .cls-2 {
        fill: #c6cbcb;
      }
    </style>
  </defs>
  <path d="M23.000,9.000 C23.000,9.000 3.404,9.000 3.404,9.000 C3.404,9.000 8.713,14.309 8.713,14.309 C9.101,14.697 9.101,15.326 8.713,15.713 C8.326,16.101 7.697,16.101 7.309,15.713 C7.309,15.713 0.353,8.757 0.353,8.757 C0.332,8.740 0.306,8.733 0.287,8.713 C0.058,8.485 -0.019,8.175 0.022,7.877 C0.027,7.828 0.036,7.786 0.049,7.738 C0.085,7.614 0.145,7.500 0.230,7.394 C0.256,7.361 0.256,7.317 0.287,7.287 C0.305,7.268 0.330,7.262 0.350,7.245 C0.350,7.245 7.309,0.287 7.309,0.287 C7.697,-0.101 8.326,-0.101 8.713,0.287 C9.101,0.674 9.101,1.303 8.713,1.691 C8.713,1.691 3.404,7.000 3.404,7.000 C3.404,7.000 23.000,7.000 23.000,7.000 C23.552,7.000 24.000,7.448 24.000,8.000 C24.000,8.552 23.552,9.000 23.000,9.000 Z" id="path-1" class="cls-2" fill-rule="evenodd"/>
</svg>
