<svg xmlns="http://www.w3.org/2000/svg" xmlns:xlink="http://www.w3.org/1999/xlink" preserveAspectRatio="xMidYMid" width="14" height="19" viewBox="0 0 14 19">
  <defs>
    <style>
      .cls-1 {
        fill: #fff;
        fill-rule: evenodd;
      }
    </style>
  </defs>
  <path d="M13.000,19.000 L1.000,19.000 C0.448,19.000 -0.000,18.552 -0.000,18.000 L-0.000,9.000 C-0.000,8.448 0.448,8.000 1.000,8.000 L2.000,8.000 L2.000,5.000 C2.000,2.239 4.239,-0.000 7.000,-0.000 C9.761,-0.000 12.000,2.239 12.000,5.000 L12.000,8.000 L13.000,8.000 C13.552,8.000 14.000,8.448 14.000,9.000 L14.000,18.000 C14.000,18.552 13.552,19.000 13.000,19.000 ZM10.000,5.000 C10.000,3.343 8.657,2.000 7.000,2.000 C5.343,2.000 4.000,3.343 4.000,5.000 L4.000,8.000 L10.000,8.000 L10.000,5.000 Z" class="cls-1"/>
</svg>
