<svg xmlns="http://www.w3.org/2000/svg" xmlns:xlink="http://www.w3.org/1999/xlink" version="1.1" x="0px" y="0px" viewBox="3 36 93 58" style="enable-background:new 0 0 100 100;" xml:space="preserve" fill="#0069d5"><path d="M78.07117,54.05786c-2.05347,0-3.72406,1.67053-3.72406,3.7243c0,2.05322,1.67059,3.72382,3.72406,3.72382  c2.05322,0,3.72382-1.67059,3.72382-3.72382C81.79498,55.72839,80.12439,54.05786,78.07117,54.05786z M78.07117,60.39441  c-1.44043,0-2.61249-1.17175-2.61249-2.61224c0-1.44043,1.17206-2.61279,2.61249-2.61279c1.44049,0,2.61224,1.17236,2.61224,2.61279  C80.68341,59.22266,79.51166,60.39441,78.07117,60.39441z"/><rect x="27.60706" y="46.15326" width="0.55579" height="7.34882"/><path d="M18.20557,54.05786c-2.05322,0-3.72382,1.67053-3.72382,3.7243c0,2.05322,1.67059,3.72382,3.72382,3.72382  c2.05347,0,3.72406-1.67059,3.72406-3.72382C21.92963,55.72839,20.25903,54.05786,18.20557,54.05786z M18.20557,60.39441  c-1.44043,0-2.61224-1.17175-2.61224-2.61224c0-1.44043,1.17181-2.61279,2.61224-2.61279s2.61249,1.17236,2.61249,2.61279  C20.81805,59.22266,19.646,60.39441,18.20557,60.39441z"/><path d="M55.37891,43.11987h1.73517l-0.0011-5.02533h-0.55524c-1.57587,0-3.15283,0.00867-4.72949,0.0174  c-1.57452,0.00867-3.14905,0.01733-4.72272,0.01733h-0.55579v6.58844h5.6272L55.37891,43.11987z M47.66132,43.60614V39.2403  c1.39075-0.00165,2.78186-0.00922,4.17316-0.01685c1.38947-0.00757,2.77863-0.0152,4.16748-0.01685v2.8017h-0.88464  l-3.20251,1.59784H47.66132z"/><path d="M94.80927,43.88403H61.11792l0.02332-8.15369L41.0517,35.77863  c-0.06403,0.0011-1.66675-0.02167-4.04425,0.38263c-0.6095,0.10425-1.43207,0.27844-2.39026,0.70996  c-0.57996,0.26105-1.01117,0.52808-1.28497,0.70612c-0.54169,0.35278-1.33923,1.02252-2.44318,1.95007  c-1.2204,1.02576-2.72839,2.29309-4.46655,3.61145c-2.84564,0.19592-5.71674,0.4483-8.53741,0.75006  c-6.51923,0.69635-8.83429,1.21954-10.6178,3.1311c-1.01221,1.08606-1.70477,2.4646-2.0578,4.09778l-0.01874,6.63776  l6.57355,0.77319c0.37195,3.22638,3.11688,5.74091,6.44128,5.74091c3.29437,0,6.01697-2.46979,6.42822-5.65381h47.00916  c0.41125,3.18402,3.13385,5.65381,6.42822,5.65381c3.51373,0,6.37732-2.80945,6.47821-6.29919l10.25989-1.18585V43.88403z   M93.14191,51.31372l-0.18018-0.00818c-0.10638-0.87708-0.44342-2.12482-1.44043-3.12457  c-0.19977-0.20026-0.41846-0.38263-0.6535-0.54547l-0.02167-0.38208h2.29578V51.31372z M9.117,47.58881h2.64288  c-0.17505,0.33759-0.45752,0.71918-0.91016,1.01874c-0.47546,0.31482-0.96912,0.42609-1.30835,0.4635H7.80164  c0.20569-0.32654,0.4278-0.63751,0.68524-0.91339C8.68201,47.94843,8.88953,47.76135,9.117,47.58881z M7.4068,51.83856v1.99133  H6.85809v-1.99133H7.4068z M18.20557,62.60229c-2.65808,0-4.82043-2.16229-4.82043-4.82013  c0-2.65839,2.16235-4.82068,4.82043-4.82068s4.82068,2.16229,4.82068,4.82068C23.02625,60.44,20.86365,62.60229,18.20557,62.60229z   M78.07117,62.60229c-2.65808,0-4.82068-2.16229-4.82068-4.82013c0-2.65839,2.1626-4.82068,4.82068-4.82068  c2.65814,0,4.82043,2.16229,4.82043,4.82068C82.8916,60.44,80.72931,62.60229,78.07117,62.60229z M84.38428,56.31091  c-0.66901-2.86993-3.24249-5.01672-6.31311-5.01672c-3.29437,0-6.01697,2.47021-6.42822,5.6543H24.63379  c-0.41125-3.18408-3.13385-5.6543-6.42822-5.6543c-3.26117,0-5.96051,2.42157-6.41345,5.55939l-4.93402-0.58081v-1.33136h1.66022  v-4.21442h-1.4715c0.05847-0.18677,0.12317-0.36786,0.19336-0.54437h2.35876l0.02795-0.00269  c0.66541-0.06787,1.30042-0.29095,1.83612-0.64532c1.16449-0.77075,1.52838-1.92133,1.63098-2.38049l0.15088-0.67682h-1.50574  c1.40283-0.34119,3.37152-0.61536,6.32312-0.93085c2.88147-0.30829,5.81586-0.56445,8.72119-0.76147l0.24719-0.01624  l0.19781-0.14929c1.85706-1.39813,3.4519-2.73871,4.73334-3.81549c1.01874-0.85596,1.82336-1.53217,2.27954-1.82855  c0.24695-0.16064,0.59052-0.37231,1.06024-0.58344c0.7818-0.35223,1.44287-0.49445,1.9859-0.58728  c2.21417-0.37665,3.72107-0.3598,3.75256-0.3587l18.42902-0.04401l-0.02332,8.14935h33.69617v0.59052h-3.47083l0.11829,2.13031  l0.25183,0.15198c0.25403,0.15302,0.48688,0.33539,0.69257,0.54163c0.94653,0.94873,1.13214,2.2204,1.1582,2.89447l0.01953,0.51074  l1.23041,0.05573v2.87189L84.38428,56.31091z"/><path d="M44.46777,38.09888l-0.55389-0.00433c-1.39648-0.00977-2.79486,0.02496-4.15417,0.10529  c-1.47955,0.0863-2.2793,0.17096-3.1059,0.44397c-1.32971,0.43854-2.25482,1.18536-3.78729,2.4223  c-1.03961,0.8385-2.05536,1.74762-3.01929,2.70068l-0.96173,0.95093h15.55457L44.46777,38.09888z M43.33313,43.60614H31.62445  c0.63202-0.58289,1.28119-1.14355,1.94006-1.67493c1.59515-1.28741,2.34601-1.87195,3.4375-2.23175  c0.71289-0.2356,1.41602-0.30774,2.82312-0.39026c1.15521-0.06781,2.33893-0.10309,3.52649-0.10474L43.33313,43.60614z"/><rect x="44.88678" y="46.15326" width="0.55579" height="7.27448"/><rect x="57.96484" y="46.15326" width="0.55573" height="7.34882"/><rect x="25.22437" y="54.94141" width="45.75879" height="0.55579"/></svg>